# xmcd
#
# Track frame offsets:
#	150
#	12922
#	34211
#	53309
#	79508
#	96199
#	110299
#	127266
#	141560
#	163098
#	174560
#
# Disc length: 2565 seconds
#
# Revision: 1
# Processed by: cddbd v1.4PL0 Copyright (c) Steve Scherf et al.
# Submitted via: CDmax 1.9
#
DISCID=8d0a030b
DTITLE=Uncle John - This Here Road
DYEAR=2002
DGENRE=Country
TTITLE0=Wild Side of Town
TTITLE1=Walnut Grove
TTITLE2=Music, Motorcycles and Mayhem
TTITLE3=Lonesome Mandolin
TTITLE4=Dancin' Lady
TTITLE5=Your Life in Your Town
TTITLE6=Forever Valentine
TTITLE7=Sweat on Your Brow
TTITLE8=Yellow Roses for Roxanne
TTITLE9=Blue Eyes
TTITLE10=This Here Road
EXTD=
EXTT0=
EXTT1=
EXTT2=
EXTT3=
EXTT4=
EXTT5=
EXTT6=
EXTT7=
EXTT8=
EXTT9=
EXTT10=
PLAYORDER=
